<?xml version="1.0" encoding="UTF-8"?>
<svg version="1.1" xmlns="http://www.w3.org/2000/svg" width="1024" height="1024">
<path d="M0 0 C337.92 0 675.84 0 1024 0 C1024 337.92 1024 675.84 1024 1024 C686.08 1024 348.16 1024 0 1024 C0 686.08 0 348.16 0 0 Z " fill="#FDFDFD" transform="translate(0,0)"/>
<path d="M0 0 C0.72843034 -0.00311998 1.45686069 -0.00623996 2.20736468 -0.00945449 C4.65530269 -0.01744976 7.10299385 -0.01110468 9.55093384 -0.00482178 C11.30366156 -0.0075312 13.05638814 -0.01109185 14.80911255 -0.01544189 C19.57827897 -0.02458069 24.3473591 -0.02101374 29.11652708 -0.01468372 C34.11261956 -0.00962345 39.1087046 -0.014316 44.10479736 -0.01745605 C52.50645269 -0.02109899 60.90807291 -0.01629155 69.3097229 -0.0067749 C78.99970279 0.00407489 88.68959829 0.00061076 98.37957609 -0.01042771 C106.70844057 -0.01953364 115.03727978 -0.02076869 123.36614764 -0.01555037 C128.33583176 -0.01244423 133.3054764 -0.01198313 138.27515793 -0.01862335 C142.95862473 -0.02444305 147.64198413 -0.02031611 152.32543945 -0.00883484 C154.03574064 -0.00621128 155.746051 -0.00691344 157.45634842 -0.01136017 C182.71840721 -0.07093273 182.71840721 -0.07093273 193.33071899 5.56646729 C194.44317993 6.1401001 195.55564087 6.71373291 196.70181274 7.30474854 C201.93702052 10.50226222 206.03394466 13.78440505 209.14321899 19.19146729 C209.62275024 20.00486572 210.10228149 20.81826416 210.59634399 21.65631104 C216.95524189 34.39326014 214.43409137 50.99086059 210.27505493 64.22027588 C203.68902566 83.37919801 192.46755603 100.19065804 174.13931274 109.67974854 C171.41970388 110.96201196 168.68226588 112.13174724 165.89321899 113.25396729 C165.16618774 113.56334229 164.43915649 113.87271729 163.69009399 114.19146729 C156.96555703 116.7816593 150.03459661 116.95937276 142.89321899 117.25396729 C143.29540649 118.2091626 143.29540649 118.2091626 143.70571899 119.18365479 C146.8912577 127.08462908 149.43108744 135.10256558 151.89321899 143.25396729 C154.56255572 152.08326381 157.34230658 160.73453013 160.89321899 169.25396729 C161.56147455 170.91999752 162.22861746 172.58647605 162.89321899 174.25396729 C158.57103856 171.50931858 154.75906265 168.50793993 151.01821899 165.00396729 C150.49357056 164.51944092 149.96892212 164.03491455 149.42837524 163.53570557 C146.49554318 160.81094605 143.66595078 158.01771295 140.89321899 155.12896729 C132.63620202 146.78665055 121.49092354 138.0665059 110.21841431 134.37896729 C102.72680462 131.70997241 102.72680462 131.70997241 100.36856079 127.59088135 C99.27520787 124.33047895 98.47579413 121.11879471 97.76821899 117.75396729 C97.49235962 116.6260376 97.21650024 115.49810791 96.93228149 114.33599854 C96.20331748 111.31651522 95.52850196 108.29436436 94.89321899 105.25396729 C94.50094116 104.11024658 94.50094116 104.11024658 94.10073853 102.94342041 C93.7708113 98.66756352 95.61492036 95.29635951 97.33071899 91.44146729 C97.6690979 90.65320557 98.00747681 89.86494385 98.35610962 89.05279541 C99.19005587 87.11475131 100.0400786 85.18363895 100.89321899 83.25396729 C102.10268188 83.24462158 103.31214478 83.23527588 104.55825806 83.22564697 C109.09865492 83.1854019 113.63839849 83.11955163 118.17837524 83.04644775 C120.1333672 83.01843651 122.08846823 82.99712457 124.04360962 82.98297119 C143.73114182 83.16843979 143.73114182 83.16843979 160.50259399 73.94537354 C162.95141538 70.96689135 164.47884596 67.82263999 165.89321899 64.25396729 C166.19228149 63.54111572 166.49134399 62.82826416 166.79946899 62.09381104 C169.28498862 55.56932202 170.07388253 49.13329032 168.01821899 42.37896729 C160.96932208 35.33007037 151.13365753 35.72823516 141.83348083 35.67396545 C139.99532037 35.67562321 138.15716015 35.67755854 136.31900024 35.67974854 C134.38972225 35.66726297 132.4604555 35.65291781 130.53120422 35.63682556 C125.45175866 35.59888882 120.37250673 35.58364713 115.29293823 35.57403564 C110.23580496 35.56163801 105.17878926 35.53206069 100.12173462 35.50201416 C99.13489119 35.49620771 98.14804775 35.49040127 97.13129997 35.48441887 C94.17303012 35.4666904 91.21476495 35.44831541 88.25650024 35.42974854 C87.28966434 35.4238483 86.32282845 35.41794807 85.32669449 35.41186905 C61.35561742 35.26153232 61.35561742 35.26153232 49.70549583 34.97014427 C47.7443681 34.92332501 45.78293029 34.89011175 43.82151794 34.85731506 C42.67237411 34.823452 41.52323029 34.78958893 40.33926392 34.75469971 C39.3510112 34.73050461 38.36275848 34.70630951 37.34455872 34.68138123 C34.50517076 34.18630746 33.57381523 33.56229709 31.89321899 31.25396729 C31.48092932 28.50536948 31.42210299 26.97543791 32.9581604 24.62310791 C35.86281508 22.56793463 38.79901983 22.83271253 42.22915649 22.84771729 C43.3037059 22.83146301 43.3037059 22.83146301 44.39996338 22.81488037 C46.6894736 22.78061886 48.97848617 22.76503112 51.26821899 22.75396729 C54.2765079 22.73936394 57.28369172 22.70559634 60.29165649 22.66021729 C60.97827362 22.66323853 61.66489075 22.66625977 62.37231445 22.66937256 C66.68586798 22.60233738 69.4917883 21.95831066 72.89321899 19.25396729 C73.56007838 16.7106962 73.56007838 16.7106962 72.89321899 14.25396729 C69.27128266 11.83934306 66.62453033 11.9677624 62.44009399 11.98272705 C61.68369629 11.97750031 60.92729858 11.97227356 60.14797974 11.96688843 C58.50615514 11.95664937 56.86429809 11.95086818 55.22244263 11.94900703 C52.62524196 11.94534821 50.02842479 11.92863613 47.43130493 11.9082489 C40.04758827 11.85278274 32.66381536 11.82211412 25.27993774 11.79766846 C20.76356431 11.78181397 16.24746391 11.75161932 11.73123169 11.71290398 C10.00884901 11.70123706 8.28641755 11.69532348 6.56399536 11.69522285 C4.15782059 11.69503129 1.75240166 11.67680206 -0.65365601 11.65460205 C-1.72444397 11.66146782 -1.72444397 11.66146782 -2.81686401 11.66847229 C-5.69498883 11.62614952 -7.65947526 11.55622305 -10.08041382 9.92033386 C-11.10678101 8.25396729 -11.10678101 8.25396729 -10.98178101 5.19146729 C-9.2577772 -0.59625977 -5.27675555 0.00304263 0 0 Z " fill="#21512A" transform="translate(384.1067810058594,358.74603271484375)"/>
<path d="M0 0 C1.47024879 -0.00618599 1.47024879 -0.00618599 2.97019958 -0.01249695 C4.04409943 -0.00171112 5.11799927 0.00907471 6.22444153 0.02018738 C7.35629379 0.0197493 8.48814606 0.01931122 9.65429688 0.01885986 C13.40417085 0.02095377 17.15360051 0.04431389 20.90339661 0.0677948 C23.4998551 0.07338859 26.09631675 0.07765971 28.69277954 0.08065796 C34.83389283 0.09095112 40.97482211 0.1146073 47.11586601 0.14470643 C54.10731561 0.17823032 61.09877283 0.19473136 68.0902828 0.20979273 C82.47208381 0.24115643 96.85375015 0.29392948 111.23542786 0.36076355 C109.52252252 5.57181638 107.76091288 10.75116474 105.83113098 15.8868866 C105.15527954 17.68871651 105.15527954 17.68871651 104.46577454 19.52694702 C103.98287515 20.80884217 103.49983966 22.09068604 103.01667786 23.3724823 C102.51243161 24.7128597 102.00824156 26.05325824 101.50410461 27.39367676 C100.45302272 30.1869535 99.40056515 32.97970734 98.34724426 35.7721405 C97.00236273 39.33816218 95.66204006 42.90587851 94.32286835 46.47404766 C93.28530485 49.23649583 92.24478053 51.99782177 91.20343018 54.75884438 C90.70804623 56.0736742 90.21369441 57.3888934 89.72042847 58.70451927 C89.02995353 60.54511747 88.33492344 62.38400488 87.63972473 64.2228241 C87.24684265 65.26601303 86.85396057 66.30920197 86.44917297 67.38400269 C85.1930607 70.46467079 83.76021274 73.40505349 82.23542786 76.36076355 C80.19351804 76.21837518 78.15190741 76.07169327 76.11042786 75.92326355 C74.97347473 75.84205261 73.83652161 75.76084167 72.66511536 75.6771698 C69.23542786 75.36076355 69.23542786 75.36076355 66.38581848 74.84709167 C63.32759367 74.37499125 60.49026415 74.24649024 57.39949036 74.2631073 C55.80427551 74.26794128 55.80427551 74.26794128 54.17683411 74.27287292 C52.53521301 74.28544128 52.53521301 74.28544128 50.86042786 74.29826355 C49.74281067 74.30277527 48.62519348 74.30728699 47.47370911 74.31193542 C44.72755982 74.32367111 41.98152199 74.34008992 39.23542786 74.36076355 C41.38569374 76.51102943 45.93753165 76.20911442 48.92292786 76.61076355 C85.63425972 81.92428935 120.3627732 94.3722828 146.48542786 121.73576355 C169.25040682 144.71349933 200.87262499 158.32010424 233.16731262 158.55119324 C247.80052363 158.55229574 247.80052363 158.55229574 262.23542786 156.36076355 C263.47808411 156.09263855 264.72074036 155.82451355 266.00105286 155.54826355 C274.58982323 153.60144773 282.7205943 150.85909308 290.90730286 147.6302948 C293.371184 146.69043404 295.66518792 145.89947546 298.23542786 145.36076355 C295.98700981 147.86937363 293.88682491 149.16441723 290.81355286 150.51701355 C289.95245911 150.89986511 289.09136536 151.28271667 288.20417786 151.6771698 C286.85839661 152.26304871 286.85839661 152.26304871 285.48542786 152.86076355 C284.60370911 153.25134949 283.72199036 153.64193542 282.81355286 154.0443573 C281.08314028 154.80913786 279.35059081 155.56910417 277.61579895 156.32389832 C276.15679943 156.95942354 274.70064474 157.60159347 273.24958801 158.25505066 C269.58395611 159.88786796 266.02416513 161.0474272 262.11042786 161.92326355 C261.11784973 162.15142761 260.12527161 162.37959167 259.10261536 162.6146698 C248.48859203 164.66242582 238.30695797 165.720507 227.48542786 165.67326355 C226.16865051 165.6690741 224.85187317 165.66488464 223.49519348 165.66056824 C213.73033144 165.54747102 204.7089606 164.75483419 195.23542786 162.36076355 C194.04691223 162.07072449 192.85839661 161.78068542 191.63386536 161.4818573 C172.1522409 156.31987477 155.45457475 147.57327635 140.23542786 134.36076355 C139.44136536 133.67627136 138.64730286 132.99177917 137.82917786 132.2865448 C134.243932 129.12676325 130.74431599 125.91838955 127.43074036 122.4740448 C115.44147809 110.0208764 100.83776131 98.78844949 84.23542786 93.36076355 C85.03464661 93.88283386 85.83386536 94.40490417 86.65730286 94.9427948 C102.52054148 105.49066648 114.91269249 119.17647067 127.76277161 133.0990448 C136.78517261 142.55828459 147.44246125 149.16926476 158.92292786 155.23576355 C159.77725403 155.68806335 160.6315802 156.14036316 161.51179504 156.60636902 C170.13997269 161.0395128 179.05554679 164.2953585 188.48542786 166.54826355 C189.14027161 166.71261902 189.79511536 166.87697449 190.46980286 167.04631042 C197.50449336 168.77008875 204.36440095 169.51196164 211.57527161 169.6771698 C212.34222855 169.6979509 213.10918549 169.71873199 213.89938354 169.74014282 C216.32381657 169.80497186 218.74834799 169.86420976 221.17292786 169.92326355 C222.82723447 169.96651234 224.48153153 170.01012854 226.13581848 170.05412292 C230.16892352 170.16058379 234.20212645 170.26203417 238.23542786 170.36076355 C223.84714427 179.95295261 198.26607161 177.9455227 181.98542786 175.29826355 C179.36661792 174.70930525 176.81521374 174.08399484 174.23542786 173.36076355 C173.42654114 173.13501648 172.61765442 172.90926941 171.78425598 172.67668152 C154.19145374 167.60485321 139.42742564 159.91769742 125.23542786 148.36076355 C124.03659973 147.39203308 124.03659973 147.39203308 122.81355286 146.4037323 C117.74366351 142.11180873 113.61794399 137.35694677 109.49324036 132.1615448 C106.57688967 128.54385719 103.47680027 125.12015938 100.34089661 121.6927948 C98.47360488 119.62457001 96.69903524 117.50671412 94.92292786 115.36076355 C79.13849972 97.36288687 53.42336047 82.96843443 29.27693176 81.21885681 C24.01452983 80.93698612 18.75449515 80.87295853 13.48542786 80.86076355 C12.75070251 80.85618134 12.01597717 80.85159912 11.25898743 80.84687805 C0.61131765 80.8205754 -9.37203667 82.06689983 -19.76457214 84.36076355 C-16.73675597 81.11135796 -13.24348291 79.40866222 -9.26457214 77.54826355 C-8.52134705 77.20005554 -7.77812195 76.85184753 -7.01237488 76.49308777 C9.54071004 68.97036801 26.15124186 65.27702897 44.23542786 64.36076355 C45.55542786 60.73076355 46.87542786 57.10076355 48.23542786 53.36076355 C46.87026535 53.3707563 46.87026535 53.3707563 45.4775238 53.38095093 C36.913379 53.44098607 28.34930455 53.48669918 19.78499794 53.51620007 C15.38166475 53.53187649 10.97850497 53.55315053 6.57527161 53.58708191 C2.32831994 53.6196053 -1.9184646 53.63760166 -6.16553116 53.64539528 C-7.78831744 53.65095147 -9.41109426 53.66180098 -11.03380966 53.67795372 C-13.30152624 53.69963533 -15.56854646 53.70273446 -17.83634949 53.70133972 C-19.12874542 53.70800156 -20.42114136 53.71466339 -21.75270081 53.7215271 C-22.74661835 53.60247513 -23.74053589 53.48342316 -24.76457214 53.36076355 C-26.76457214 50.36076355 -26.76457214 50.36076355 -26.45207214 47.23576355 C-25.76457214 44.36076355 -25.76457214 44.36076355 -24.76457214 43.36076355 C-22.36206682 43.23586657 -19.9868443 43.17475565 -17.58268738 43.15544128 C-16.83151642 43.14554169 -16.08034546 43.13564209 -15.30641174 43.1254425 C-12.81202903 43.09373809 -10.31762723 43.06903496 -7.82316589 43.0443573 C-6.09823091 43.02379548 -4.37330106 43.00279922 -2.64837646 42.98138428 C1.900496 42.92608384 6.44941453 42.87670986 10.99836731 42.82853699 C15.63667419 42.77838001 20.27491384 42.72266372 24.91316223 42.66740417 C34.02052673 42.55972516 43.1279495 42.45830198 52.23542786 42.36076355 C53.55542786 39.06076355 54.87542786 35.76076355 56.23542786 32.36076355 C55.06447571 32.37123718 53.89352356 32.38171082 52.68708801 32.39250183 C48.35232081 32.42863852 44.01756697 32.45164087 39.68269348 32.47062683 C37.80474104 32.48069889 35.92680432 32.49435717 34.04890442 32.51164246 C31.35322695 32.53583808 28.6577564 32.54723438 25.96199036 32.55607605 C25.11923553 32.56639862 24.27648071 32.57672119 23.40818787 32.58735657 C21.34921539 32.58775499 19.29074851 32.48333943 17.23542786 32.36076355 C15.23542786 30.36076355 15.23542786 30.36076355 14.92292786 27.42326355 C15.23542786 24.36076355 15.23542786 24.36076355 16.4927063 22.69638062 C18.63332463 21.05581655 19.75556924 20.96856923 22.43147278 20.9283905 C23.69244026 20.89869926 23.69244026 20.89869926 24.97888184 20.8684082 C25.88209671 20.86201828 26.78531158 20.85562836 27.71589661 20.8490448 C28.64388565 20.8310936 29.57187469 20.8131424 30.52798462 20.79464722 C33.49291943 20.74045064 36.45769241 20.70661855 39.42292786 20.67326355 C41.43271605 20.64009873 43.44248286 20.60560986 45.45222473 20.56974792 C50.3798425 20.48471876 55.3074115 20.41795217 60.23542786 20.36076355 C61.22542786 17.72076355 62.21542786 15.08076355 63.23542786 12.36076355 C62.37543182 12.3526767 61.51543579 12.34458984 60.62937927 12.33625793 C52.53599226 12.25840928 44.44277381 12.17114844 36.34960365 12.07323647 C32.18853228 12.02322956 28.02748684 11.97690014 23.86628723 11.93888855 C19.85263919 11.90209093 15.83920585 11.85574652 11.82574081 11.80270004 C10.29233429 11.78412659 8.7588817 11.76902959 7.22540665 11.75741959 C5.08220039 11.74060714 2.93948904 11.71158567 0.79646301 11.67961121 C-0.42487335 11.66628754 -1.64620972 11.65296387 -2.90455627 11.63923645 C-5.76457214 11.36076355 -5.76457214 11.36076355 -7.76457214 9.36076355 C-8.32188413 4.12203083 -8.32188413 4.12203083 -6.54282665 1.69190502 C-4.226771 -0.04181629 -2.87824334 -0.00933484 0 0 Z " fill="#23522C" transform="translate(378.7645721435547,402.6392364501953)"/>
<path d="M0 0 C5.21480604 0.57416906 9.8447895 1.8002826 14.75 3.6875 C15.44375732 3.95079102 16.13751465 4.21408203 16.85229492 4.48535156 C23.98766101 7.26594262 30.62724389 10.75149593 37 15 C35.05776676 20.99319103 32.94548436 26.88968571 30.64453125 32.75390625 C30.33803146 33.54022934 30.03153168 34.32655243 29.71574402 35.13670349 C28.7500586 37.61278003 27.78133736 40.08765529 26.8125 42.5625 C26.15149028 44.25578036 25.4906812 45.94913907 24.83007812 47.64257812 C23.22236669 51.76262667 21.61193423 55.88160186 20 60 C9.73426419 60.06941058 -0.5314161 60.12276564 -10.79733849 60.15543652 C-15.56386967 60.17111433 -20.3302407 60.19239099 -25.09667969 60.22631836 C-29.6937582 60.25883666 -34.29068236 60.27683706 -38.88786697 60.28463173 C-40.64462338 60.29018882 -42.40137103 60.30104003 -44.15806198 60.31719017 C-46.61256128 60.33886478 -49.06641701 60.34197117 -51.52099609 60.34057617 C-52.25251389 60.351362 -52.98403168 60.36214783 -53.73771667 60.3732605 C-55.76034546 60.36076355 -55.76034546 60.36076355 -59 60 C-61.15502531 56.76746204 -61.46856135 55.74849077 -61 52 C-59.47656677 50.03684533 -58.58904002 49.11307514 -56.12068176 48.63923645 C-55.41674789 48.64589828 -54.71281403 48.65256012 -53.98754883 48.65942383 C-53.18694534 48.65965042 -52.38634186 48.65987701 -51.56147766 48.66011047 C-50.70201035 48.67559433 -49.84254303 48.69107819 -48.95703125 48.70703125 C-47.63163582 48.71339851 -47.63163582 48.71339851 -46.27946472 48.71989441 C-43.45683339 48.73668957 -40.63491559 48.77434303 -37.8125 48.8125 C-35.89909885 48.82754577 -33.98568651 48.84123436 -32.07226562 48.85351562 C-27.38123541 48.88659581 -22.69073869 48.9383837 -18 49 C-17.79503906 48.37351562 -17.59007812 47.74703125 -17.37890625 47.1015625 C-17.10949219 46.28429687 -16.84007812 45.46703125 -16.5625 44.625 C-16.29566406 43.81289063 -16.02882813 43.00078125 -15.75390625 42.1640625 C-15 40 -15 40 -14 38 C-14.89307861 38.01571045 -15.78615723 38.0314209 -16.70629883 38.04760742 C-20.02178756 38.09875439 -23.33685675 38.13635812 -26.65258789 38.16479492 C-28.08722552 38.17987589 -29.52181708 38.2003438 -30.95629883 38.22631836 C-33.01915859 38.26273437 -35.08140858 38.27973243 -37.14453125 38.29296875 C-39.00621948 38.31653442 -39.00621948 38.31653442 -40.90551758 38.34057617 C-44 38 -44 38 -45.94018555 36.70825195 C-47 35 -47 35 -46.8125 31.375 C-46.544375 30.26125 -46.27625 29.1475 -46 28 C-42.93405406 26.46702703 -39.72888147 26.87868545 -36.3671875 26.90234375 C-35.23943405 26.90446617 -35.23943405 26.90446617 -34.08889771 26.90663147 C-31.6842249 26.91223535 -29.27964473 26.92478843 -26.875 26.9375 C-25.24609509 26.9425145 -23.61718873 26.9470775 -21.98828125 26.95117188 C-17.99215173 26.96220603 -13.99609158 26.97947321 -10 27 C-8.515 21.555 -8.515 21.555 -7 16 C-7.95366455 16.01047363 -8.9073291 16.02094727 -9.88989258 16.03173828 C-13.42891688 16.06794501 -16.9679248 16.09090284 -20.50708008 16.10986328 C-22.03868361 16.11991935 -23.57026795 16.133566 -25.10180664 16.15087891 C-27.30359636 16.17514498 -29.50513219 16.18648688 -31.70703125 16.1953125 C-32.39150833 16.20563507 -33.07598541 16.21595764 -33.78120422 16.22659302 C-37.43061661 16.22745382 -38.87148502 16.08567666 -42 14 C-42.37952408 11.02706138 -42.57811741 8.96004497 -41.00073242 6.34057617 C-37.80507562 4.19934963 -34.33778427 4.51826098 -30.61328125 4.48828125 C-29.79627243 4.47033005 -28.97926361 4.45237885 -28.13749695 4.43388367 C-25.52921706 4.37972212 -22.92112075 4.34586692 -20.3125 4.3125 C-18.54359421 4.27933201 -16.77471267 4.24484283 -15.00585938 4.20898438 C-10.67070527 4.12399254 -6.33560616 4.05720965 -2 4 C-1.34 2.68 -0.68 1.36 0 0 Z " fill="#21512B" transform="translate(413,491)"/>
<path d="M0 0 C0.66 0.33 1.32 0.66 2 1 C1.71125 1.78761719 1.4225 2.57523437 1.125 3.38671875 C-1.92819425 12.34487549 -4.31440915 21.50327827 -0.5 30.5625 C6.97235316 37.84804433 14.87989737 37.6033908 24.78125 37.609375 C26.20473086 37.62437742 27.62819444 37.64110886 29.05163574 37.65948486 C32.77352759 37.70294024 36.49518473 37.72310844 40.21728516 37.73822021 C44.02520502 37.75787071 47.83287429 37.79983138 51.640625 37.83984375 C59.09368227 37.91490898 66.54663357 37.96534298 74 38 C72.95536941 43.08672288 71.82365426 47.93988092 69.87109375 52.76953125 C69.27844727 54.25549805 69.27844727 54.25549805 68.67382812 55.77148438 C68.26583984 56.77501953 67.85785156 57.77855469 67.4375 58.8125 C66.62154555 60.83897843 65.80765597 62.86628983 64.99609375 64.89453125 C64.63700928 65.77987549 64.2779248 66.66521973 63.90795898 67.57739258 C63.10856182 69.71033639 62.49564218 71.77976813 62 74 C56.93210414 74.09984488 51.86479699 74.1719226 46.79614258 74.21972656 C45.07663991 74.23968148 43.35720367 74.26685558 41.63793945 74.30175781 C26.58269683 74.59944798 14.76192427 72.74080249 3.1328125 62.328125 C-10.56947459 48.07774643 -15.78816486 24.73089417 -20 6 C-19.2265625 5.81824219 -18.453125 5.63648438 -17.65625 5.44921875 C-12.78806589 4.27434758 -8.03054962 3.11393776 -3.375 1.25 C-2.26125 0.8375 -1.1475 0.425 0 0 Z " fill="#21512B" transform="translate(559,477)"/>
<path d="M0 0 C1.59853436 0.0037385 3.19707103 0.00658151 4.79560852 0.00857544 C8.96632413 0.01614609 13.13689645 0.03573667 17.30755615 0.0579834 C21.5780646 0.07858481 25.84859661 0.08760747 30.11914062 0.09765625 C38.47141931 0.11898998 46.82358237 0.15304472 55.17578125 0.1953125 C54.70718806 1.77101667 54.23748765 3.34639159 53.76733398 4.92163086 C53.50589096 5.7989537 53.24444794 6.67627655 52.9750824 7.58018494 C51.82555446 11.34117315 50.55045461 15.05100977 49.23828125 18.7578125 C48.87959961 19.79325195 48.87959961 19.79325195 48.51367188 20.84960938 C47.181602 24.62790784 45.7163926 28.3047942 44.07592773 31.96069336 C43.71909409 32.7576915 43.36226044 33.55468964 42.99461365 34.37583923 C42.72439896 34.97626541 42.45418427 35.57669159 42.17578125 36.1953125 C41.47135895 36.20339935 40.76693665 36.21148621 40.04116821 36.21981812 C33.3630079 36.29815371 26.68503275 36.3855576 20.00712013 36.48283958 C16.57493661 36.53252709 13.14277984 36.57885638 9.71044922 36.6171875 C5.75341314 36.66153208 1.79667176 36.72106523 -2.16015625 36.78125 C-3.98575577 36.79857681 -3.98575577 36.79857681 -5.84823608 36.81625366 C-12.72674604 36.93403044 -19.13946528 37.53915135 -25.82421875 39.1953125 C-25.88738281 38.34710938 -25.95054687 37.49890625 -26.015625 36.625 C-27.24488073 24.85002402 -31.08496825 15.349448 -38.82421875 6.1953125 C-37.22488268 5.55805287 -35.61933743 4.93637896 -34.01171875 4.3203125 C-33.11839844 3.97226562 -32.22507812 3.62421875 -31.3046875 3.265625 C-20.93594014 0.07703154 -10.73823303 -0.07451257 0 0 Z " fill="#24522C" transform="translate(632.82421875,358.8046875)"/>
<path d="M0 0 C2.990625 -0.103125 5.98125 -0.20625 9.0625 -0.3125 C10.45480835 -0.38078003 10.45480835 -0.38078003 11.87524414 -0.45043945 C18.20150369 -0.55521242 21.25714037 0.79882155 26 5 C27.7183093 8.4366186 27.38792805 12.2344225 27 16 C25.625 18.5625 25.625 18.5625 24 20 C23.34 20 22.68 20 22 20 C23.65 22.97 25.3 25.94 27 29 C27.66 29 28.32 29 29 29 C29.32274902 28.26362305 29.64549805 27.52724609 29.97802734 26.76855469 C31.44262733 23.42857155 32.90879612 20.08927934 34.375 16.75 C35.13683594 15.01169922 35.13683594 15.01169922 35.9140625 13.23828125 C36.64882813 11.56572266 36.64882813 11.56572266 37.3984375 9.859375 C37.84880371 8.83295898 38.29916992 7.80654297 38.76318359 6.74902344 C39.78984699 4.46709886 40.85891636 2.22627747 42 0 C44.64 0 47.28 0 50 0 C51.8000205 3.85031845 53.58849952 7.7058921 55.375 11.5625 C55.88289063 12.64853516 56.39078125 13.73457031 56.9140625 14.85351562 C59.37354152 20.17699325 61.63955194 25.28775726 63 31 C60.03 31 57.06 31 54 31 C53.505 28.03 53.505 28.03 53 25 C48.38 25 43.76 25 39 25 C38.34 26.98 37.68 28.96 37 31 C34.10109685 31.18964787 31.21461131 31.32785971 28.3125 31.4375 C27.49587891 31.49615234 26.67925781 31.55480469 25.83789062 31.61523438 C19.87643914 31.78418239 19.87643914 31.78418239 17.30224609 29.48095703 C14 24.9882716 14 24.9882716 14 22 C12.35 22 10.7 22 9 22 C9 24.97 9 27.94 9 31 C6.03 31 3.06 31 0 31 C0 20.77 0 10.54 0 0 Z " fill="#2C552D" transform="translate(250,615)"/>
<path d="M0 0 C19.49433962 -0.77358491 19.49433962 -0.77358491 27 5 C30.01153124 8.10010569 30.20002972 10.76320915 30.375 14.9375 C30.23229139 19.29659948 29.50489046 22.33212469 27 26 C21.5313173 31.10410386 15.78053407 31.26942974 8.6875 31.125 C5.820625 31.08375 2.95375 31.0425 0 31 C0 20.77 0 10.54 0 0 Z " fill="#2C5433" transform="translate(361,615)"/>
<path d="M0 0 C3.95392396 2.31680942 7.07380069 4.62477463 8.61328125 9.05078125 C9.26413947 14.43065995 9.31305906 18.65122562 6.86328125 23.55078125 C3.33574392 27.47026717 0.51827834 29.77259472 -4.875 30.2890625 C-10.90815736 30.4476102 -14.75223179 30.34615941 -19.38671875 26.05078125 C-23.38349434 20.75775412 -25.15351548 16.73286708 -24.38671875 10.05078125 C-19.17476779 0.51885751 -10.72685783 -4.26616441 0 0 Z " fill="#2F5834" transform="translate(418.38671875,615.94921875)"/>
<path d="M0 0 C4.9809375 -0.1546875 4.9809375 -0.1546875 10.0625 -0.3125 C11.09511963 -0.35802002 12.12773926 -0.40354004 13.19165039 -0.45043945 C18.75717836 -0.53365126 22.37649429 0.00129402 26.69458008 3.65307617 C29.89854452 6.95890595 30.31171499 9.85645029 30.375 14.375 C30.26136887 19.39482206 29.56167757 22.2556723 26 26 C20.24159166 30.07392549 16.00137846 30.52223098 9.0625 30.25 C6.071875 30.1675 3.08125 30.085 0 30 C0 20.1 0 10.2 0 0 Z " fill="#275132" transform="translate(472,616)"/>
<path d="M0 0 C7 0 7 0 8.77270508 1.14575195 C9.18415771 1.67128662 9.59561035 2.19682129 10.01953125 2.73828125 C10.48423828 3.31126953 10.94894531 3.88425781 11.42773438 4.47460938 C11.88470703 5.08111328 12.34167969 5.68761719 12.8125 6.3125 C13.52696289 7.20485352 13.52696289 7.20485352 14.25585938 8.11523438 C16.28915303 10.67472498 18.1866235 13.27993525 20 16 C20.33 10.72 20.66 5.44 21 0 C23.64 0 26.28 0 29 0 C29 10.23 29 20.46 29 31 C22 31 22 31 20.22729492 29.85424805 C19.81584229 29.32871338 19.40438965 28.80317871 18.98046875 28.26171875 C18.51576172 27.68873047 18.05105469 27.11574219 17.57226562 26.52539062 C17.11529297 25.91888672 16.65832031 25.31238281 16.1875 24.6875 C15.71119141 24.09259766 15.23488281 23.49769531 14.74414062 22.88476562 C12.71084697 20.32527502 10.8133765 17.72006475 9 15 C8.67 20.28 8.34 25.56 8 31 C5.36 31 2.72 31 0 31 C0 20.77 0 10.54 0 0 Z " fill="#2C5632" transform="translate(676,615)"/>
<path d="M0 0 C2.495625 -0.061875 4.99125 -0.12375 7.5625 -0.1875 C8.33408447 -0.21481201 9.10566895 -0.24212402 9.90063477 -0.27026367 C15.7007187 -0.33900431 20.37438789 0.79787371 24.9375 4.625 C26.62397365 8.39476463 26.7801644 11.95470312 26 16 C23.42424147 19.36279586 20.88633744 21.3925994 17 23 C14.640625 23.1953125 14.640625 23.1953125 12.25 23.125 C11.45078125 23.10695313 10.6515625 23.08890625 9.828125 23.0703125 C9.22484375 23.04710937 8.6215625 23.02390625 8 23 C8 25.64 8 28.28 8 31 C5.36 31 2.72 31 0 31 C0 20.77 0 10.54 0 0 Z " fill="#325734" transform="translate(316,615)"/>
<path d="M0 0 C7.92 0 15.84 0 24 0 C24 2.31 24 4.62 24 7 C18.72 7 13.44 7 8 7 C8 8.65 8 10.3 8 12 C12.62 12 17.24 12 22 12 C22 14.31 22 16.62 22 19 C17.71 19 13.42 19 9 19 C9 20.65 9 22.3 9 24 C14.28 24 19.56 24 25 24 C25 26.31 25 28.62 25 31 C16.75 31 8.5 31 0 31 C0 20.77 0 10.54 0 0 Z " fill="#395E41" transform="translate(507,615)"/>
<path d="M0 0 C7.92 0 15.84 0 24 0 C24 2.31 24 4.62 24 7 C18.72 7 13.44 7 8 7 C8 8.65 8 10.3 8 12 C12.62 12 17.24 12 22 12 C22 14.31 22 16.62 22 19 C17.38 19 12.76 19 8 19 C8 20.65 8 22.3 8 24 C13.61 24 19.22 24 25 24 C25 26.31 25 28.62 25 31 C16.75 31 8.5 31 0 31 C0 20.77 0 10.54 0 0 Z " fill="#355B3B" transform="translate(647,615)"/>
<path d="M0 0 C1.134375 0.020625 2.26875 0.04125 3.4375 0.0625 C16.4375 25.37019231 16.4375 25.37019231 16.4375 31.0625 C13.7975 31.0625 11.1575 31.0625 8.4375 31.0625 C7.7775 29.4125 7.1175 27.7625 6.4375 26.0625 C-0.4925 25.5675 -0.4925 25.5675 -7.5625 25.0625 C-7.8925 27.0425 -8.2225 29.0225 -8.5625 31.0625 C-11.2025 31.0625 -13.8425 31.0625 -16.5625 31.0625 C-14.61403515 23.89403806 -12.04863225 17.2391139 -8.9375 10.5 C-8.32648437 9.14938477 -8.32648437 9.14938477 -7.703125 7.77148438 C-4.19404241 0.07357969 -4.19404241 0.07357969 0 0 Z " fill="#28542F" transform="translate(756.5625,614.9375)"/>
<path d="M0 0 C0.763125 0.33 1.52625 0.66 2.3125 1 C1.6525 3.31 0.9925 5.62 0.3125 8 C-1.2653125 7.505 -1.2653125 7.505 -2.875 7 C-6.07623357 6.16033218 -8.4286008 5.80249096 -11.6875 6 C-12.0175 6.99 -12.3475 7.98 -12.6875 9 C-11.45773437 9.34611328 -11.45773437 9.34611328 -10.203125 9.69921875 C-1.43803305 12.35181237 -1.43803305 12.35181237 2.0625 15.375 C3.62050716 18.64681503 3.98342861 20.42171406 3.3125 24 C1.139865 26.57285724 -0.66743838 28.48996919 -3.6875 30 C-10.72019384 30.55493184 -16.4481639 30.40327424 -22.6875 27 C-22.0275 25.02 -21.3675 23.04 -20.6875 21 C-18.30185923 21.57584432 -16.02067216 22.22227595 -13.6875 23 C-12.12631572 23.06740865 -10.5624748 23.08514456 -9 23.0625 C-8.19175781 23.05347656 -7.38351562 23.04445313 -6.55078125 23.03515625 C-5.93589844 23.02355469 -5.32101562 23.01195312 -4.6875 23 C-5.0175 22.01 -5.3475 21.02 -5.6875 20 C-8.34583217 18.9291345 -8.34583217 18.9291345 -11.5 18.125 C-15.25521142 16.94619404 -17.43336509 16.21948015 -20.4375 13.625 C-21.99550716 10.35318497 -22.35842861 8.57828594 -21.6875 5 C-15.64684375 -2.15340871 -8.80097833 -2.38670599 0 0 Z " fill="#2C5133" transform="translate(452.6875,616)"/>
<path d="M0 0 C2.31 0 4.62 0 7 0 C7.01981934 0.55985596 7.03963867 1.11971191 7.06005859 1.6965332 C7.15537783 4.23565854 7.26502753 6.77396888 7.375 9.3125 C7.4059375 10.19357422 7.436875 11.07464844 7.46875 11.98242188 C7.50742187 12.82998047 7.54609375 13.67753906 7.5859375 14.55078125 C7.6173584 15.33106689 7.6487793 16.11135254 7.68115234 16.9152832 C7.89587889 19.30155768 7.89587889 19.30155768 10 22 C13.5 22.41666667 13.5 22.41666667 17 22 C19.43914492 19.56085508 19.28662523 18.78553569 19.4140625 15.4296875 C19.45273437 14.53378906 19.49140625 13.63789062 19.53125 12.71484375 C19.5621875 11.77769531 19.593125 10.84054687 19.625 9.875 C19.66367187 8.93011719 19.70234375 7.98523438 19.7421875 7.01171875 C19.83661346 4.67467625 19.92218394 2.33764499 20 0 C22.31 0 24.62 0 27 0 C27.08741124 3.56234428 27.14052896 7.12441108 27.1875 10.6875 C27.21263672 11.69490234 27.23777344 12.70230469 27.26367188 13.74023438 C27.3556984 23.03491327 27.3556984 23.03491327 24 27 C20.08818808 30.54507955 15.80184479 30.6125086 10.734375 30.49609375 C6.37507512 29.7051922 3.76589096 27.35733934 1 24 C-0.25248502 21.49502996 -0.11374406 19.79146726 -0.09765625 16.9921875 C-0.09443359 16.00605469 -0.09121094 15.01992188 -0.08789062 14.00390625 C-0.07951172 12.97136719 -0.07113281 11.93882812 -0.0625 10.875 C-0.05798828 9.83472656 -0.05347656 8.79445313 -0.04882812 7.72265625 C-0.03701952 5.14838038 -0.02055075 2.57421854 0 0 Z " fill="#264F2C" transform="translate(614,616)"/>
<path d="M0 0 C1.92415787 0.95188022 3.79291302 2.01417212 5.6484375 3.09375 C5.6484375 6.09375 5.6484375 6.09375 4.1484375 7.78125 C3.6534375 8.214375 3.1584375 8.6475 2.6484375 9.09375 C1.7821875 8.76375 0.9159375 8.43375 0.0234375 8.09375 C-3.41694041 7.07437877 -5.79784842 6.63022208 -9.3515625 7.09375 C-11.87163094 8.53036311 -11.87163094 8.53036311 -13.3515625 11.09375 C-13.80467154 14.71862235 -13.74041792 17.14591491 -12.3515625 20.53125 C-9.74865073 22.56477482 -7.59453042 22.52237946 -4.359375 22.3671875 C-1.80438949 22.01923228 0.34740218 21.24426766 2.6484375 20.09375 C4.2109375 21.34375 4.2109375 21.34375 5.6484375 23.09375 C5.6484375 25.09375 5.6484375 25.09375 4.6484375 27.09375 C-0.74659273 31.02702516 -5.90540583 30.87218683 -12.3515625 30.09375 C-17.2330035 27.82736668 -20.05184318 24.95854088 -22.3515625 20.09375 C-23.12164939 14.82101223 -23.00612148 10.53377975 -20.7890625 5.65625 C-14.90658851 -0.52788932 -8.23074935 -3.17198314 0 0 Z " fill="#264D2D" transform="translate(603.3515625,615.90625)"/>
<path d="M0 0 C0 3 0 3 -1.6875 4.8125 C-2.450625 5.204375 -3.21375 5.59625 -4 6 C-6.3125 5.1875 -6.3125 5.1875 -9 4 C-12.54230809 3.41657647 -12.54230809 3.41657647 -16 4 C-18.67838573 5.93126102 -18.67838573 5.93126102 -20 9 C-19.94021398 12.46758942 -19.60965977 14.88826749 -17.9375 17.9375 C-14.77476884 19.67190096 -11.48204252 19.42737343 -8 19 C-5.59442147 18.13734032 -5.59442147 18.13734032 -4 17 C-2.68 18.32 -1.36 19.64 0 21 C-1 24 -1 24 -3.375 25.6875 C-8.33987853 27.48512843 -12.77524767 27.70078645 -18 27 C-23.00230198 24.54432448 -26.49851535 21.0029693 -29 16 C-29.56735892 11.34951706 -29.4598631 7.90269423 -27.3125 3.6875 C-19.24251778 -5.69112798 -10.32491839 -6.15101521 0 0 Z " fill="#2A5230" transform="translate(738,619)"/>
<path d="M0 0 C6.27 0 12.54 0 19 0 C19.66 1.32 20.32 2.64 21 4 C19 7 19 7 18 8 C18.33 8.33 18.66 8.66 19 9 C19.1875 11.4375 19.1875 11.4375 19 14 C17 16 17 16 15.0546875 16.1953125 C13.03645833 16.13020833 11.01822917 16.06510417 9 16 C9.66 17.98 10.32 19.96 11 22 C10.34 22 9.68 22 9 22 C9 24.97 9 27.94 9 31 C6.03 31 3.06 31 0 31 C0 20.77 0 10.54 0 0 Z " fill="#365C3B" transform="translate(250,615)"/>
<path d="M0 0 C2.05078125 0.03255208 4.1015625 0.06510417 6.15234375 0.09765625 C7.95236425 3.9479747 9.74084327 7.80354835 11.52734375 11.66015625 C12.03523438 12.74619141 12.543125 13.83222656 13.06640625 14.95117188 C15.52588527 20.2746495 17.79189569 25.38541351 19.15234375 31.09765625 C16.18234375 31.09765625 13.21234375 31.09765625 10.15234375 31.09765625 C10.15234375 28.78765625 10.15234375 26.47765625 10.15234375 24.09765625 C6.85234375 24.09765625 3.55234375 24.09765625 0.15234375 24.09765625 C0.48234375 22.77765625 0.81234375 21.45765625 1.15234375 20.09765625 C2.80234375 19.76765625 4.45234375 19.43765625 6.15234375 19.09765625 C5.16234375 16.12765625 4.17234375 13.15765625 3.15234375 10.09765625 C2.49234375 10.09765625 1.83234375 10.09765625 1.15234375 10.09765625 C0.99378906 10.68933594 0.83523438 11.28101563 0.671875 11.890625 C-0.92929013 17.31335551 -2.50254873 20.45716076 -6.84765625 24.09765625 C-7.50765625 23.76765625 -8.16765625 23.43765625 -8.84765625 23.09765625 C-9.19922076 17.33798233 -8.14326266 13.39406057 -5.91015625 8.22265625 C-5.63236328 7.5471875 -5.35457031 6.87171875 -5.06835938 6.17578125 C-2.5513034 0.1348469 -2.5513034 0.1348469 0 0 Z " fill="#245029" transform="translate(293.84765625,614.90234375)"/>
<path d="M0 0 C13.125 -0.53571429 13.125 -0.53571429 16.6875 1.8125 C19.69566007 4.65805683 20.92604923 6.20133167 21.3125 10.375 C20.97991769 14.23295483 20.39841663 16.00197922 18 19 C12.84773591 22.51180265 5.90622689 21.10937457 0 21 C0 14.07 0 7.14 0 0 Z " fill="#8B9295" transform="translate(494,656)"/>
<path d="M0 0 C0.99 0.33 1.98 0.66 3 1 C2.01 2.485 2.01 2.485 1 4 C1.66 4.33 2.32 4.66 3 5 C2.01 6.485 2.01 6.485 1 8 C0.47042247 10.13968352 0.47042247 10.13968352 0.25 12.4375 C0.15203125 13.19933594 0.0540625 13.96117187 -0.046875 14.74609375 C0.00840442 17.40411269 0.55056027 18.78348664 2 21 C4.90066509 22.93377673 5.79076028 23.27507614 9.0625 23.5625 C13 24 13 24 15 25 C15.763125 24.175 16.52625 23.35 17.3125 22.5 C20 20 20 20 23 20 C21.64844718 24.42326378 19.80109562 26.40412982 16 29 C10.1991439 30.9336187 4.1018254 30.99359019 -1.4375 28.375 C-5.99202464 24.15373326 -8.59069983 19.98204408 -9.4375 13.8125 C-8.8470598 8.66723542 -6.50483754 5.70949959 -3 2 C-2.01 1.34 -1.02 0.68 0 0 Z " fill="#264E2C" transform="translate(403,616)"/>
<path d="M0 0 C2.31 0 4.62 0 7 0 C8.50585523 3.45581315 10.00368289 6.91504753 11.5 10.375 C11.92925781 11.35984375 12.35851562 12.3446875 12.80078125 13.359375 C13.40986328 14.77089844 13.40986328 14.77089844 14.03125 16.2109375 C14.40830078 17.08024902 14.78535156 17.94956055 15.17382812 18.84521484 C16 21 16 21 16 23 C14.02 23 12.04 23 10 23 C9.505 20.525 9.505 20.525 9 18 C5.37 18.33 1.74 18.66 -2 19 C-2.33 19.99 -2.66 20.98 -3 22 C-4.98 22 -6.96 22 -9 22 C-7.00878667 14.10501383 -3.81085857 7.17773362 0 0 Z " fill="#204E29" transform="translate(553,623)"/>
<path d="M0 0 C0.969375 -0.00386719 1.93875 -0.00773437 2.9375 -0.01171875 C3.948125 -0.00011719 4.95875 0.01148438 6 0.0234375 C7.010625 0.01183594 8.02125 0.00023437 9.0625 -0.01171875 C10.031875 -0.00785156 11.00125 -0.00398438 12 0 C12.886875 0.00338379 13.77375 0.00676758 14.6875 0.01025391 C17.45307876 0.47449274 18.34505824 1.16893734 20 3.3984375 C20.42288925 6.21769915 20.51252419 7.69880795 18.80493164 10.02978516 C16.37119389 11.87525165 14.78097381 11.78589327 11.74609375 11.796875 C10.72708984 11.80074219 9.70808594 11.80460937 8.65820312 11.80859375 C7.59537109 11.79699219 6.53253906 11.78539062 5.4375 11.7734375 C4.37080078 11.78503906 3.30410156 11.79664063 2.20507812 11.80859375 C1.18736328 11.80472656 0.16964844 11.80085938 -0.87890625 11.796875 C-2.27991577 11.79179932 -2.27991577 11.79179932 -3.70922852 11.78662109 C-4.46518311 11.65852051 -5.2211377 11.53041992 -6 11.3984375 C-8.15502531 8.16589954 -8.46856135 7.14692827 -8 3.3984375 C-5.66524442 0.24292845 -3.82250183 0.0145844 0 0 Z " fill="#2E5538" transform="translate(345,358.6015625)"/>
<path d="M0 0 C0.97130859 0.00322266 1.94261719 0.00644531 2.94335938 0.00976562 C3.91080078 -0.00634766 4.87824219 -0.02246094 5.875 -0.0390625 C6.80376953 -0.03970703 7.73253906 -0.04035156 8.68945312 -0.04101562 C9.54079834 -0.04399658 10.39214355 -0.04697754 11.26928711 -0.05004883 C13.98470613 0.40197759 14.89761638 1.11674116 16.50585938 3.32226562 C16.3663835 6.11178309 15.95947485 7.74015484 14.23632812 9.95141602 C10.91228865 12.58466681 6.5774111 11.79130581 2.50585938 11.75976562 C1.590625 11.77974609 0.67539062 11.79972656 -0.26757812 11.8203125 C-1.14671875 11.81966797 -2.02585937 11.81902344 -2.93164062 11.81835938 C-3.73472656 11.8202124 -4.5378125 11.82206543 -5.36523438 11.82397461 C-7.49414062 11.32226562 -7.49414062 11.32226562 -9.29101562 9.45532227 C-10.49414062 7.32226562 -10.49414062 7.32226562 -10.30664062 4.69726562 C-8.43840895 -0.76371926 -5.02237789 0.03839205 0 0 Z " fill="#2E5637" transform="translate(346.494140625,402.677734375)"/>
<path d="M0 0 C2.64 0 5.28 0 8 0 C8 10.23 8 20.46 8 31 C5.36 31 2.72 31 0 31 C0 20.77 0 10.54 0 0 Z " fill="#2C5833" transform="translate(347,615)"/>
<path d="M0 0 C1.134375 0.020625 2.26875 0.04125 3.4375 0.0625 C3.4375 3.6925 3.4375 7.3225 3.4375 11.0625 C2.4475 11.0625 1.4575 11.0625 0.4375 11.0625 C0.1075 10.7325 -0.2225 10.4025 -0.5625 10.0625 C-1.06910156 11.23619141 -1.06910156 11.23619141 -1.5859375 12.43359375 C-2.03195312 13.44550781 -2.47796875 14.45742188 -2.9375 15.5 C-3.37835937 16.50933594 -3.81921875 17.51867187 -4.2734375 18.55859375 C-5.5625 21.0625 -5.5625 21.0625 -7.5625 22.0625 C-8.02901207 24.18826782 -8.02901207 24.18826782 -8.1875 26.625 C-8.26226563 27.45128906 -8.33703125 28.27757812 -8.4140625 29.12890625 C-8.46304688 29.76699219 -8.51203125 30.40507813 -8.5625 31.0625 C-11.2025 31.0625 -13.8425 31.0625 -16.5625 31.0625 C-14.61403515 23.89403806 -12.04863225 17.2391139 -8.9375 10.5 C-8.32648437 9.14938477 -8.32648437 9.14938477 -7.703125 7.77148438 C-4.19404241 0.07357969 -4.19404241 0.07357969 0 0 Z " fill="#204D26" transform="translate(756.5625,614.9375)"/>
<path d="M0 0 C3.9375 0.625 3.9375 0.625 6.4375 2.0625 C8.67320183 5.88182396 8.69754105 9.31018361 7.9375 13.625 C6.4375 16.1875 6.4375 16.1875 3.9375 17.625 C-0.08892386 18.40883251 -3.01503431 18.29645236 -6.5 16.0625 C-8.6290223 12.74122522 -9.13067573 10.57919205 -9.0625 6.625 C-6.70523219 2.44275066 -4.83548374 0.26260118 0 0 Z " fill="#F9FAF7" transform="translate(411.0625,621.375)"/>
<path d="M0 0 C7.98445596 -0.47668394 7.98445596 -0.47668394 12.0625 1.4375 C14.531676 4.70318438 14.67381632 6.85197543 14.40234375 10.87109375 C14 13 14 13 12.625 15.5625 C8.45216495 17.84762396 4.70790603 17.24778453 0 17 C0 11.39 0 5.78 0 0 Z " fill="#F9FAF8" transform="translate(480,622)"/>
<path d="M0 0 C2.23046875 -0.05859375 2.23046875 -0.05859375 5 1 C6.86734408 3.79121276 8.05848889 6.83221632 9.3125 9.9375 C9.67150391 10.77474609 10.03050781 11.61199219 10.40039062 12.47460938 C13 18.62949405 13 18.62949405 13 21 C11.68 20.67 10.36 20.34 9 20 C8.67 18.68 8.34 17.36 8 16 C6.20739868 16.05995322 4.41574205 16.1487241 2.625 16.25 C1.62726563 16.29640625 0.62953125 16.3428125 -0.3984375 16.390625 C-3.1526477 16.72160885 -3.1526477 16.72160885 -4.3515625 19.046875 C-4.56554687 19.69140625 -4.77953125 20.3359375 -5 21 C-6.32 21 -7.64 21 -9 21 C-6.76686274 13.55620912 -3.59727921 6.88023305 0 0 Z " fill="#80888C" transform="translate(461,656)"/>
<path d="M0 0 C8.1021987 -0.60464169 8.1021987 -0.60464169 12.0625 2.0625 C14.51596953 5.78227638 14.78154305 7.6233589 14 12 C12.0625 14.9375 12.0625 14.9375 9 17 C5.87335485 17.40782328 3.17557846 17.23698347 0 17 C0 11.39 0 5.78 0 0 Z " fill="#FAFAF8" transform="translate(369,622)"/>
<path d="M0 0 C4.95 0 9.9 0 15 0 C15 1.32 15 2.64 15 4 C11.37 4 7.74 4 4 4 C4 5.65 4 7.3 4 9 C7.63 9 11.26 9 15 9 C15 10.32 15 11.64 15 13 C11.37 13 7.74 13 4 13 C4 14.65 4 16.3 4 18 C7.96 18 11.92 18 16 18 C16 18.99 16 19.98 16 21 C10.72 21 5.44 21 0 21 C0 14.07 0 7.14 0 0 Z " fill="#7C8385" transform="translate(520,656)"/>
<path d="M0 0 C1.01513672 -0.01740234 1.01513672 -0.01740234 2.05078125 -0.03515625 C4.98239445 -0.01780943 7.0079748 0.02919915 9.4453125 1.7421875 C10.96670158 4.09752319 10.91161418 5.63090544 10.5 8.375 C9.4453125 10.0078125 9.4453125 10.0078125 7.5 11.375 C4.89958045 11.67369684 2.59300841 11.79445157 0 11.75 C-0.67675781 11.76160156 -1.35351562 11.77320313 -2.05078125 11.78515625 C-4.98239445 11.76780943 -7.0079748 11.72080085 -9.4453125 10.0078125 C-10.96670158 7.65247681 -10.91161418 6.11909456 -10.5 3.375 C-7.95970498 -0.55775303 -4.23822439 -0.07265528 0 0 Z " fill="#285333" transform="translate(352.5,495.625)"/>
<path d="M0 0 C0.37125 0.66 0.7425 1.32 1.125 2 C2.98898949 4.42934901 2.98898949 4.42934901 6.875 4.375 C10.2498916 4.21310483 12.95182239 3.52408881 16 2 C17.5625 3.25 17.5625 3.25 19 5 C19 7 19 7 18 9 C12.61685755 12.92460831 7.4349762 12.80110665 1 12 C-2.77260108 10.52846918 -4.74673253 8.3799012 -7 5 C-6.34 5 -5.68 5 -5 5 C-5 3.68 -5 2.36 -5 1 C-2 0 -2 0 0 0 Z " fill="#2D5838" transform="translate(590,634)"/>
<path d="M0 0 C0.99 0.66 1.98 1.32 3 2 C2.67 2.99 2.34 3.98 2 5 C-0.97 4.67 -3.94 4.34 -7 4 C-7.33 5.32 -7.66 6.64 -8 8 C-7.07767578 8.16435547 -7.07767578 8.16435547 -6.13671875 8.33203125 C-5.32847656 8.49058594 -4.52023437 8.64914062 -3.6875 8.8125 C-2.88699219 8.96332031 -2.08648437 9.11414063 -1.26171875 9.26953125 C1.27227149 10.0879357 2.39926233 10.88827766 4 13 C3.86129257 15.77414854 3.44267025 17.41489326 1.76171875 19.63671875 C-0.59702401 21.46199862 -2.11043126 21.36901973 -5.0625 21.3125 C-5.94035156 21.30863281 -6.81820313 21.30476562 -7.72265625 21.30078125 C-10 21 -10 21 -12 19 C-12 18.01 -12 17.02 -12 16 C-8.7 16.33 -5.4 16.66 -2 17 C-2 16.01 -2 15.02 -2 14 C-2.63808594 13.72285156 -3.27617187 13.44570313 -3.93359375 13.16015625 C-4.75988281 12.79792969 -5.58617187 12.43570313 -6.4375 12.0625 C-7.26121094 11.70285156 -8.08492188 11.34320312 -8.93359375 10.97265625 C-11 10 -11 10 -12 9 C-12.57416268 3.71770335 -12.57416268 3.71770335 -10.5 1.125 C-6.78412956 -0.5471417 -4.07220491 -0.32319087 0 0 Z " fill="#878D90" transform="translate(439,656)"/>
<path d="M0 0 C0.66 0 1.32 0 2 0 C2.99 2.97 3.98 5.94 5 9 C4.195625 9.268125 3.39125 9.53625 2.5625 9.8125 C1.716875 10.204375 0.87125 10.59625 0 11 C-0.33 11.99 -0.66 12.98 -1 14 C2.3 14 5.6 14 9 14 C8.67 14.99 8.34 15.98 8 17 C8 16.34 8 15.68 8 15 C3.38 15 -1.24 15 -6 15 C-6.66 16.98 -7.32 18.96 -8 21 C-13.94 21 -19.88 21 -26 21 C-26 20.67 -26 20.34 -26 20 C-25.00419922 20.08314453 -25.00419922 20.08314453 -23.98828125 20.16796875 C-20.99214559 20.18983835 -18.81988557 20.05046119 -16 19 C-13.58258141 15.57842292 -12.24640792 11.98194529 -11 8 C-10.87625 8.639375 -10.7525 9.27875 -10.625 9.9375 C-10.41875 10.618125 -10.2125 11.29875 -10 12 C-9.34 12.33 -8.68 12.66 -8 13 C-7.54625 12.34 -7.0925 11.68 -6.625 11 C-6.08875 10.34 -5.5525 9.68 -5 9 C-4.34 9 -3.68 9 -3 9 C-2.01 6.03 -1.02 3.06 0 0 Z " fill="#325836" transform="translate(295,625)"/>
<path d="M0 0 C7.92 0 7.92 0 12 3 C13 4 13 4 13.375 7.3125 C13 11 13 11 11 13.4375 C7.00764582 15.51685114 4.45909693 15.30231166 0 15 C0 10.05 0 5.1 0 0 Z " fill="#FAFAFA" transform="translate(498,659)"/>
<path d="M0 0 C2.5 1.375 2.5 1.375 4 3 C4 3.66 4 4.32 4 5 C3.24074219 4.89300781 2.48148438 4.78601563 1.69921875 4.67578125 C0.20841797 4.49595703 0.20841797 4.49595703 -1.3125 4.3125 C-2.29863281 4.18488281 -3.28476562 4.05726563 -4.30078125 3.92578125 C-6.99996112 3.75492799 -6.99996112 3.75492799 -8.83203125 5.26171875 C-10.76795409 8.1429417 -10.35930914 10.64644798 -10 14 C-9.08333333 16.08333333 -9.08333333 16.08333333 -7 17 C-3.14353614 17.2804701 0.30516081 17.18234854 4 16 C3.75 17.875 3.75 17.875 3 20 C-0.17378467 22.35095161 -3.15091063 22.39276422 -7 22 C-10.45273673 20.55466834 -11.77628342 19.34714641 -13.8125 16.1875 C-15.1159927 12.68865116 -15.61449842 10.68699055 -15 7 C-11.08819538 0.7845771 -7.23391837 -0.82918432 0 0 Z " fill="#8E9599" transform="translate(563,656)"/>
<path d="M0 0 C2.31 0 4.62 0 7 0 C7 7.26 7 14.52 7 22 C6.01 22.33 5.02 22.66 4 23 C3.34 22.67 2.68 22.34 2 22 C2 21.34 2 20.68 2 20 C1.34 20 0.68 20 0 20 C0 13.4 0 6.8 0 0 Z M0 22 C2 23 2 23 2 23 Z " fill="#1E4824" transform="translate(634,616)"/>
<path d="M0 0 C1.796875 0.08984375 1.796875 0.08984375 4 1 C5.703125 3.94140625 5.703125 3.94140625 7.25 7.5625 C8.03117188 9.35880859 8.03117188 9.35880859 8.828125 11.19140625 C9.21484375 12.11824219 9.6015625 13.04507813 10 14 C11.89668064 11.15497903 13.23263478 8.42700115 14.625 5.3125 C15.07101562 4.31863281 15.51703125 3.32476563 15.9765625 2.30078125 C16.31429687 1.54152344 16.65203125 0.78226563 17 0 C17.99 0 18.98 0 20 0 C18.69779585 7.45445439 15.5079659 14.33486478 12 21 C10.68 21 9.36 21 8 21 C6.65757579 18.06657102 5.32765933 15.12763748 4 12.1875 C3.6184375 11.35412109 3.236875 10.52074219 2.84375 9.66210938 C2.4828125 8.85966797 2.121875 8.05722656 1.75 7.23046875 C1.41484375 6.49207764 1.0796875 5.75368652 0.734375 4.99291992 C0 3 0 3 0 0 Z " fill="#828B8F" transform="translate(576,656)"/>
<path d="M0 0 C2.49710982 0.34442894 3.82154665 0.84703999 5.75 2.5 C7.65574967 6.31149934 7.78653237 9.82989442 7 14 C4.875 17.0625 4.875 17.0625 2 19 C-1.3125 19.3125 -1.3125 19.3125 -4 19 C-3.67 18.34 -3.34 17.68 -3 17 C-2.01 17 -1.02 17 0 17 C-0.66 12.05 -1.32 7.1 -2 2 C-1.34 2 -0.68 2 0 2 C0 1.34 0 0.68 0 0 Z " fill="#254C2A" transform="translate(335,617)"/>
<path d="M0 0 C1.134375 0.020625 2.26875 0.04125 3.4375 0.0625 C4.4275 3.0325 5.4175 6.0025 6.4375 9.0625 C5.7775 9.7225 5.1175 10.3825 4.4375 11.0625 C4.1075 12.0525 3.7775 13.0425 3.4375 14.0625 C1.1275 14.0625 -1.1825 14.0625 -3.5625 14.0625 C-3.5625 12.4125 -3.5625 10.7625 -3.5625 9.0625 C-4.8825 9.3925 -6.2025 9.7225 -7.5625 10.0625 C-7.08699439 8.58215236 -6.60698784 7.10324979 -6.125 5.625 C-5.85816406 4.80128906 -5.59132813 3.97757813 -5.31640625 3.12890625 C-4.05800074 -0.32029849 -3.9959287 0.07010401 0 0 Z " fill="#36633B" transform="translate(556.5625,622.9375)"/>
<path d="M0 0 C3.63 0 7.26 0 11 0 C11.433125 0.9075 11.86625 1.815 12.3125 2.75 C13.83939409 5.92540611 13.83939409 5.92540611 15.6875 8.1875 C17 10 17 10 17 13 C11.75065617 13.52493438 11.75065617 13.52493438 9 13 C5 8.4 5 8.4 5 5 C4.01 5 3.02 5 2 5 C1.34 3.35 0.68 1.7 0 0 Z " fill="#254728" transform="translate(259,632)"/>
<path d="M0 0 C0.66 0.33 1.32 0.66 2 1 C-26.61486486 15.64189189 -26.61486486 15.64189189 -37 16 C-36.67 14.68 -36.34 13.36 -36 12 C-35.16359985 11.77449463 -35.16359985 11.77449463 -34.31030273 11.54443359 C-23.49679346 8.60529178 -13.01916799 5.48704703 -2.73828125 1.00390625 C-1.83464844 0.67261719 -0.93101562 0.34132813 0 0 Z " fill="#295132" transform="translate(675,548)"/>
<path d="M0 0 C2.62208654 0.26220865 3.80848326 0.82216303 5.75 2.625 C7.49961016 5.94925931 7.39054855 8.28978882 7 12 C5.77597332 14.75406002 4.84025838 16.42727672 2.34375 18.12890625 C-0.91552339 19.34026953 -3.78583651 19.18915118 -7.25 19.125 C-8.51328125 19.10695313 -9.7765625 19.08890625 -11.078125 19.0703125 C-12.04234375 19.04710937 -13.0065625 19.02390625 -14 19 C-13.67 18.34 -13.34 17.68 -13 17 C-10.890625 16.7265625 -10.890625 16.7265625 -8.25 16.625 C-4.80704487 16.32904397 -2.99912406 15.99954451 0.125 14.375 C2.29380705 12.03675631 2.29380705 12.03675631 2.5 8.5 C1.99603747 4.97226229 1.42668267 3.52779445 -1 1 C-0.67 0.67 -0.34 0.34 0 0 Z " fill="#7F888D" transform="translate(508,658)"/>
<path d="M0 0 C0.66 0 1.32 0 2 0 C5 5.75 5 5.75 5 8 C4.01 8.495 4.01 8.495 3 9 C4.32 9.66 5.64 10.32 7 11 C5.84371094 11.03867187 5.84371094 11.03867187 4.6640625 11.078125 C3.66117187 11.13484375 2.65828125 11.1915625 1.625 11.25 C0.62726563 11.29640625 -0.37046875 11.3428125 -1.3984375 11.390625 C-4.1526477 11.72160885 -4.1526477 11.72160885 -5.3515625 14.046875 C-5.56554687 14.69140625 -5.77953125 15.3359375 -6 16 C-7.32 16 -8.64 16 -10 16 C-9.54917531 14.53932801 -9.08906463 13.08151968 -8.625 11.625 C-8.36976563 10.81289063 -8.11453125 10.00078125 -7.8515625 9.1640625 C-7 7 -7 7 -5 5 C-4.01 4.67 -3.02 4.34 -2 4 C-0.79117904 1.99983534 -0.79117904 1.99983534 0 0 Z " fill="#858D91" transform="translate(462,661)"/>
<path d="M0 0 C1.89213369 2.38573379 3.02391783 4.07175348 4 7 C3.625 8.8125 3.625 8.8125 3 11 C2.65421232 12.99788438 2.31856451 14.99759451 2 17 C-0.64 17 -3.28 17 -6 17 C-4.33846988 11.14340094 -2.52958084 5.5409866 0 0 Z " fill="#2C5833" transform="translate(746,629)"/>
<path d="M0 0 C6.0546875 -0.1953125 6.0546875 -0.1953125 8 0 C10 2 10 2 10.25 4.5 C10 7 10 7 8 9 C5.31160615 9.26991906 2.70858064 9.08737357 0 9 C0 6.03 0 3.06 0 0 Z " fill="#FBF9F6" transform="translate(324,622)"/>
<path d="M0 0 C6.0546875 -0.1953125 6.0546875 -0.1953125 8 0 C10 2 10 2 10.25 4.5 C10 7 10 7 8 9 C5.31160615 9.26991906 2.70858064 9.08737357 0 9 C0 6.03 0 3.06 0 0 Z " fill="#FAF9F7" transform="translate(259,622)"/>
<path d="M0 0 C0.33 0 0.66 0 1 0 C1.33 3.63 1.66 7.26 2 11 C-1.44069624 13.29379749 -2.72290301 14 -7 14 C-6.690625 13.34 -6.38125 12.68 -6.0625 12 C-4.75039745 8.29523985 -4.39735865 4.90736009 -4 1 C-2.68 1.33 -1.36 1.66 0 2 C0 1.34 0 0.68 0 0 Z " fill="#1D4527" transform="translate(388,627)"/>
<path d="M0 0 C3.96 0 7.92 0 12 0 C12 0.33 12 0.66 12 1 C8.37 1 4.74 1 1 1 C1 2.65 1 4.3 1 6 C4.63 6 8.26 6 12 6 C12 7.32 12 8.64 12 10 C8.37 10 4.74 10 1 10 C1 11.65 1 13.3 1 15 C0.67 15 0.34 15 0 15 C0 10.05 0 5.1 0 0 Z " fill="#A3A7A9" transform="translate(523,659)"/>
<path d="M0 0 C2.5 1.375 2.5 1.375 4 3 C4 3.66 4 4.32 4 5 C3.27554688 4.84660156 2.55109375 4.69320312 1.8046875 4.53515625 C-1.25364794 4.0417448 -3.90802815 3.73667273 -7 4 C-9.66105593 5.95485263 -11.21140895 8.26249996 -13 11 C-13.33 11 -13.66 11 -14 11 C-14.375 8.3125 -14.375 8.3125 -14 5 C-9.61305137 -0.04499093 -6.57122696 -0.84790025 0 0 Z " fill="#868B8C" transform="translate(563,656)"/>
<path d="M0 0 C0.391875 0.639375 0.78375 1.27875 1.1875 1.9375 C3.78167435 4.88949151 6.2013431 4.71330891 10 5 C10 5.33 10 5.66 10 6 C4.375 7.125 4.375 7.125 1 6 C1 7.65 1 9.3 1 11 C-2.91402949 9.73058503 -4.79072873 8.48832306 -7 5 C-6.34 5 -5.68 5 -5 5 C-5 3.68 -5 2.36 -5 1 C-2 0 -2 0 0 0 Z " fill="#315C3C" transform="translate(590,634)"/>
<path d="M0 0 C1.98 0 3.96 0 6 0 C6 0.66 6 1.32 6 2 C6.66 2 7.32 2 8 2 C7.67 3.65 7.34 5.3 7 7 C5.68 7 4.36 7 3 7 C3 7.66 3 8.32 3 9 C2.34 9 1.68 9 1 9 C0.67 9.99 0.34 10.98 0 12 C-1.88059033 10.11940967 -1.12361218 7.50109962 -1.1328125 5.0078125 C-1 3 -1 3 0 0 Z " fill="#224924" transform="translate(291,616)"/>
<path d="M0 0 C0.99 0 1.98 0 3 0 C4.83691257 3.78187881 5.15837626 5.94568308 4 10 C1.03 10 -1.94 10 -5 10 C-4.67 8.68 -4.34 7.36 -4 6 C-2.35 5.67 -0.7 5.34 1 5 C0.67 3.35 0.34 1.7 0 0 Z " fill="#214923" transform="translate(299,629)"/>
<path d="M0 0 C4.73789165 1.44323469 8.98858151 3.37226733 13.375 5.625 C14.01566406 5.94984375 14.65632813 6.2746875 15.31640625 6.609375 C16.87947501 7.40257407 18.44000622 8.20077031 20 9 C19.67 10.65 19.34 12.3 19 14 C18.55011719 13.64808594 18.10023438 13.29617188 17.63671875 12.93359375 C12.64904007 9.10537545 7.47897876 5.71328448 2.125 2.41796875 C1.42375 1.95003906 0.7225 1.48210937 0 1 C0 0.67 0 0.34 0 0 Z " fill="#E9ECE6" transform="translate(460,494)"/>
<path d="M0 0 C0.99 0.66 1.98 1.32 3 2 C2.67 2.99 2.34 3.98 2 5 C-0.97 4.67 -3.94 4.34 -7 4 C-7.99 5.485 -7.99 5.485 -9 7 C-9.33 6.34 -9.66 5.68 -10 5 C-10.66 6.32 -11.32 7.64 -12 9 C-12.48 3.6 -12.48 3.6 -10.5 1.125 C-6.78412956 -0.5471417 -4.07220491 -0.32319087 0 0 Z " fill="#989CA0" transform="translate(439,656)"/>
<path d="M0 0 C2.12472576 -0.05386629 4.24983652 -0.09273071 6.375 -0.125 C7.55835938 -0.14820313 8.74171875 -0.17140625 9.9609375 -0.1953125 C13 0 13 0 15 2 C10.83217368 4.8341219 9.78619746 3.82659964 4 3 C4 7.95 4 12.9 4 18 C3.67 18 3.34 18 3 18 C2.92652344 16.30230469 2.92652344 16.30230469 2.8515625 14.5703125 C2.77653486 13.08851661 2.70098703 11.606747 2.625 10.125 C2.57859375 9.00544922 2.57859375 9.00544922 2.53125 7.86328125 C2.44356169 3.46526812 2.44356169 3.46526812 0 0 Z " fill="#969BA0" transform="translate(494,656)"/>
<path d="M0 0 C1.65 1.32 3.3 2.64 5 4 C4 7 4 7 1.25 8.6875 C-1.85020705 9.93950669 -3.71671912 10.28970125 -7 10 C-6.525625 9.38125 -6.05125 8.7625 -5.5625 8.125 C-3.97582559 6.09294454 -3.97582559 6.09294454 -3 4 C-2.34 4 -1.68 4 -1 4 C-0.67 2.68 -0.34 1.36 0 0 Z " fill="#204827" transform="translate(733,636)"/>
<path d="M0 0 C4.29 0.33 8.58 0.66 13 1 C13 2.32 13 3.64 13 5 C9.681572 6.659214 6.60735024 5.57259528 3 5 C2.67 4.67 2.34 4.34 2 4 C1.01 4 0.02 4 -1 4 C-0.67 2.68 -0.34 1.36 0 0 Z " fill="#1E492B" transform="translate(403,639)"/>
<path d="M0 0 C4.8 2.46153846 4.8 2.46153846 5.8125 5.1875 C5.874375 5.785625 5.93625 6.38375 6 7 C4.35 7.66 2.7 8.32 1 9 C1 8.01 1 7.02 1 6 C0.360625 6.185625 -0.27875 6.37125 -0.9375 6.5625 C-1.618125 6.706875 -2.29875 6.85125 -3 7 C-3.33 6.67 -3.66 6.34 -4 6 C-5.34747084 5.76924918 -6.70377565 5.58846937 -8.0625 5.4375 C-9.361875 5.293125 -10.66125 5.14875 -12 5 C-12 4.67 -12 4.34 -12 4 C-8.7 4 -5.4 4 -2 4 C-1.34 2.68 -0.68 1.36 0 0 Z " fill="#385F3C" transform="translate(271,617)"/>
<path d="M0 0 C0 0.33 0 0.66 0 1 C-4.455 1.495 -4.455 1.495 -9 2 C-9 4.31 -9 6.62 -9 9 C-11.31 8.34 -13.62 7.68 -16 7 C-16 6.01 -16 5.02 -16 4 C-11.12800885 -0.52399178 -6.30272367 -0.10504539 0 0 Z " fill="#316039" transform="translate(730,615)"/>
<path d="M0 0 C0.625 1.875 0.625 1.875 1 4 C-1 6 -1 6 -2.9453125 6.1953125 C-4.96354167 6.13020833 -6.98177083 6.06510417 -9 6 C-9.33 5.01 -9.66 4.02 -10 3 C-9.67 2.34 -9.34 1.68 -9 1 C-6.93359375 0.5859375 -6.93359375 0.5859375 -4.4375 0.375 C-3.61121094 0.30023437 -2.78492188 0.22546875 -1.93359375 0.1484375 C-0.97646484 0.07496094 -0.97646484 0.07496094 0 0 Z " fill="#234C2E" transform="translate(600,639)"/>
<path d="M0 0 C2.26918869 0.02144115 4.47674319 0.13839224 6.73046875 0.3984375 C6.73046875 1.0584375 6.73046875 1.7184375 6.73046875 2.3984375 C2.32799555 6.04926893 -0.5977574 6.85217941 -6.26953125 6.3984375 C-3.49786106 0.61408232 -3.49786106 0.61408232 0 0 Z " fill="#345E3B" transform="translate(298.26953125,605.6015625)"/>
<path d="M0 0 C0.495 0.165 0.99 0.33 1.5 0.5 C5.04157157 1.20831431 8.38567539 1.05737023 12 1 C12.99 1 13.98 1 15 1 C13.81640625 2.9765625 13.81640625 2.9765625 12 5 C9.58984375 5.4609375 9.58984375 5.4609375 6.9375 5.375 C6.05964844 5.36210938 5.18179687 5.34921875 4.27734375 5.3359375 C2 5 2 5 0 3 C0 2.01 0 1.02 0 0 Z " fill="#80888D" transform="translate(427,672)"/>
<path d="M0 0 C0.66 0 1.32 0 2 0 C2.99 2.97 3.98 5.94 5 9 C2.36 9 -0.28 9 -3 9 C-2.01 6.03 -1.02 3.06 0 0 Z " fill="#E5E6DF" transform="translate(295,625)"/>
<path d="M0 0 C2.64 0 5.28 0 8 0 C8.99 2.64 9.98 5.28 11 8 C9.35 8.33 7.7 8.66 6 9 C5.67 9.99 5.34 10.98 5 12 C5 11.34 5 10.68 5 10 C4.34 10 3.68 10 3 10 C2.67 10.66 2.34 11.32 2 12 C2 10.68 2 9.36 2 8 C3.32 8 4.64 8 6 8 C6.33 6.35 6.66 4.7 7 3 C6.34 3 5.68 3 5 3 C5 2.34 5 1.68 5 1 C3.35 1 1.7 1 0 1 C0 0.67 0 0.34 0 0 Z " fill="#336035" transform="translate(292,615)"/>
<path d="M0 0 C2.97903734 2.97903734 4 5.80285329 4 10 C1.69 10 -0.62 10 -3 10 C-2.49287967 6.28111761 -1.88391785 3.26545761 0 0 Z " fill="#E6EBE7" transform="translate(756,624)"/>
<path d="M0 0 C3.96 1.98 3.96 1.98 8 4 C7.34 4.66 6.68 5.32 6 6 C6.99 7.32 7.98 8.64 9 10 C8.34 10.66 7.68 11.32 7 12 C5.63122884 10.76600937 4.28030834 9.51219377 2.9375 8.25 C2.18339844 7.55390625 1.42929687 6.8578125 0.65234375 6.140625 C0.10707031 5.43421875 -0.43820312 4.7278125 -1 4 C-0.67 2.68 -0.34 1.36 0 0 Z " fill="#F0F1EE" transform="translate(480,504)"/>
<path d="M0 0 C1.65 1.65 3.3 3.3 5 5 C3 7 1 9 -1 11 C-2.32 9.35 -3.64 7.7 -5 6 C-4.54625 5.566875 -4.0925 5.13375 -3.625 4.6875 C-1.79975666 2.89201658 -1.79975666 2.89201658 0 0 Z " fill="#295A36" transform="translate(402,633)"/>
<path d="M0 0 C0.66 0 1.32 0 2 0 C5 5.75 5 5.75 5 8 C2.36 8 -0.28 8 -3 8 C-1.125 2.25 -1.125 2.25 0 0 Z " fill="#EEEEEF" transform="translate(462,661)"/>
<path d="M0 0 C4.29 0 8.58 0 13 0 C13 0.99 13 1.98 13 3 C8.71 3 4.42 3 0 3 C0 2.01 0 1.02 0 0 Z " fill="#899092" transform="translate(523,674)"/>
<path d="M0 0 C1.4540625 0.0309375 1.4540625 0.0309375 2.9375 0.0625 C2.9375 1.7125 2.9375 3.3625 2.9375 5.0625 C0.2975 5.7225 -2.3425 6.3825 -5.0625 7.0625 C-4.02286585 0.0820993 -4.02286585 0.0820993 0 0 Z " fill="#25542A" transform="translate(556.0625,622.9375)"/>
<path d="M0 0 C1.32 0.33 2.64 0.66 4 1 C4.625 2.8125 4.625 2.8125 5 5 C4.01 6.485 4.01 6.485 3 8 C0.8359375 8.29296875 0.8359375 8.29296875 -1.625 8.1875 C-2.44226563 8.16042969 -3.25953125 8.13335938 -4.1015625 8.10546875 C-4.72804688 8.07066406 -5.35453125 8.03585937 -6 8 C-4.03617993 6.49440461 -2.21736634 5.10868317 0 4 C0 2.68 0 1.36 0 0 Z " fill="#1E4927" transform="translate(560,632)"/>
<path d="M0 0 C1.77503906 0.03480469 1.77503906 0.03480469 3.5859375 0.0703125 C5.36871094 0.09738281 5.36871094 0.09738281 7.1875 0.125 C8.10273438 0.14820313 9.01796875 0.17140625 9.9609375 0.1953125 C9.9609375 0.5253125 9.9609375 0.8553125 9.9609375 1.1953125 C6.3309375 1.5253125 2.7009375 1.8553125 -1.0390625 2.1953125 C-1.3690625 4.1753125 -1.6990625 6.1553125 -2.0390625 8.1953125 C-1.0490625 8.5253125 -0.0590625 8.8553125 0.9609375 9.1953125 C-0.6890625 9.1953125 -2.3390625 9.1953125 -4.0390625 9.1953125 C-4.6640625 5.8203125 -4.6640625 5.8203125 -5.0390625 2.1953125 C-3.0390625 0.1953125 -3.0390625 0.1953125 0 0 Z " fill="#204D2D" transform="translate(342.0390625,359.8046875)"/>
<path d="M0 0 C0.66 0 1.32 0 2 0 C2.99 2.97 3.98 5.94 5 9 C3.02 9 1.04 9 -1 9 C-1.125 2.25 -1.125 2.25 0 0 Z " fill="#36623F" transform="translate(564,637)"/>
<path d="M0 0 C0.33 0 0.66 0 1 0 C1.33 3.3 1.66 6.6 2 10 C0.02 10.66 -1.96 11.32 -4 12 C-2.66666667 8 -1.33333333 4 0 0 Z " fill="#345F32" transform="translate(289,621)"/>
<path d="M0 0 C3.45201639 1.47721422 5.64961936 3.43794001 8.25 6.125 C8.95640625 6.84945312 9.6628125 7.57390625 10.390625 8.3203125 C11.18726563 9.15175781 11.18726563 9.15175781 12 10 C11.34 10.66 10.68 11.32 10 12 C9.34 11.67 8.68 11.34 8 11 C8 10.34 8 9.68 8 9 C7.34 9 6.68 9 6 9 C6 8.34 6 7.68 6 7 C5.34 7 4.68 7 4 7 C0 2.52941176 0 2.52941176 0 0 Z " fill="#275732" transform="translate(498,529)"/>
<path d="M0 0 C1.65 1.65 3.3 3.3 5 5 C4.01 6.32 3.02 7.64 2 9 C1.34 8.67 0.68 8.34 0 8 C-0.33 8.66 -0.66 9.32 -1 10 C-1 9.01 -1 8.02 -1 7 C-1.31088368 5.32900023 -1.64080332 3.66128463 -2 2 C-1.34 2 -0.68 2 0 2 C0 1.34 0 0.68 0 0 Z " fill="#2C5535" transform="translate(689,624)"/>
<path d="M0 0 C0.66 0.99 1.32 1.98 2 3 C0.625 6.6875 0.625 6.6875 -1 10 C-0.67 9.67 -0.34 9.34 0 9 C0.99 9 1.98 9 3 9 C2.67 9.99 2.34 10.98 2 12 C0.02 12 -1.96 12 -4 12 C-3.52309796 10.37433394 -3.04340334 8.74948689 -2.5625 7.125 C-2.29566406 6.22007812 -2.02882813 5.31515625 -1.75390625 4.3828125 C-1 2 -1 2 0 0 Z " fill="#33673C" transform="translate(548,633)"/>
<path d="M0 0 C1.65 0.99 3.3 1.98 5 3 C3.68 4.65 2.36 6.3 1 8 C-0.98 7.34 -2.96 6.68 -5 6 C-4.67 5.34 -4.34 4.68 -4 4 C-2.35 4 -0.7 4 1 4 C0.34 3.67 -0.32 3.34 -1 3 C-0.67 2.01 -0.34 1.02 0 0 Z " fill="#385E3E" transform="translate(605,617)"/>
<path d="M0 0 C0.66 0.33 1.32 0.66 2 1 C-0.57426284 2.39489126 -3.15703057 3.76570979 -5.75 5.125 C-6.47960937 5.52332031 -7.20921875 5.92164063 -7.9609375 6.33203125 C-8.66992188 6.69941406 -9.37890625 7.06679688 -10.109375 7.4453125 C-10.75874023 7.79094238 -11.40810547 8.13657227 -12.07714844 8.49267578 C-14 9 -14 9 -16.24316406 8.09716797 C-16.82291992 7.73510254 -17.40267578 7.37303711 -18 7 C-16.86820313 6.57847656 -15.73640625 6.15695312 -14.5703125 5.72265625 C-13.08852006 5.16932869 -11.60675041 4.61594011 -10.125 4.0625 C-9.37863281 3.78470703 -8.63226562 3.50691406 -7.86328125 3.22070312 C-3.87275485 1.74900806 -3.87275485 1.74900806 0 0 Z " fill="#577C63" transform="translate(675,548)"/>
<path d="M0 0 C2.5654594 2.5654594 2.54046087 4.47686668 3 8 C1.02 8 -0.96 8 -3 8 C-1.125 1.125 -1.125 1.125 0 0 Z " fill="#DCE3DD" transform="translate(556,629)"/>
<path d="M0 0 C3.87511727 0.54984772 5.59576506 2.27555331 8.25 5.0625 C8.95640625 5.79597656 9.6628125 6.52945313 10.390625 7.28515625 C10.92171875 7.85105469 11.4528125 8.41695312 12 9 C11.34 9.66 10.68 10.32 10 11 C8.33035479 9.35718838 6.6643536 7.71067239 5 6.0625 C4.071875 5.14597656 3.14375 4.22945312 2.1875 3.28515625 C0 1 0 1 0 0 Z " fill="#E4E7E3" transform="translate(518,517)"/>
<path d="M0 0 C4.24822374 0.47202486 6.19989709 2.96655518 9 6 C8.67 6.99 8.34 7.98 8 9 C6.84775972 8.07038578 5.70340824 7.1309875 4.5625 6.1875 C3.60537109 5.40439453 3.60537109 5.40439453 2.62890625 4.60546875 C1 3 1 3 0 0 Z " fill="#295635" transform="translate(529,516)"/>
<path d="M0 0 C4.95 0 9.9 0 15 0 C14.67 0.99 14.34 1.98 14 3 C7.07 2.505 7.07 2.505 0 2 C0 1.34 0 0.68 0 0 Z " fill="#44684D" transform="translate(345,496)"/>
<path d="M0 0 C7.33333333 -0.36666667 7.33333333 -0.36666667 10.5 1.375 C12 3 12 3 12 5 C10.55989519 4.74337755 9.1229313 4.46909179 7.6875 4.1875 C6.88699219 4.03667969 6.08648438 3.88585937 5.26171875 3.73046875 C2.76554413 2.92427764 1.67577894 1.97947998 0 0 Z " fill="#8F9396" transform="translate(555,656)"/>
<path d="M0 0 C0.598125 0.226875 1.19625 0.45375 1.8125 0.6875 C0.76375002 3.30937494 0.16318687 4.48121361 -2.3125 5.9375 C-2.93125 6.185 -3.55 6.4325 -4.1875 6.6875 C-4.875 4.875 -4.875 4.875 -5.1875 2.6875 C-3.58493056 0.24147296 -2.95482043 -0.4221172 0 0 Z " fill="#2D5837" transform="translate(638.1875,638.3125)"/>
<path d="M0 0 C0.99 1.485 0.99 1.485 2 3 C2.66 2.67 3.32 2.34 4 2 C4.59732819 4.76264289 5 7.16032769 5 10 C1.125 8.25 1.125 8.25 0 6 C-0.039992 4.00039988 -0.04346799 1.99952758 0 0 Z " fill="#395A3B" transform="translate(431,621)"/>
<path d="M0 0 C1.32 0.33 2.64 0.66 4 1 C4 1.66 4 2.32 4 3 C3.34 3 2.68 3 2 3 C2 4.32 2 5.64 2 7 C0.68 6.67 -0.64 6.34 -2 6 C-1.34 4.02 -0.68 2.04 0 0 Z " fill="#326440" transform="translate(432,637)"/>
<path d="M0 0 C2.0625 0.4375 2.0625 0.4375 4 1 C4 1.99 4 2.98 4 4 C0.66666667 7 0.66666667 7 -2 7 C-1.125 1.125 -1.125 1.125 0 0 Z " fill="#244D2E" transform="translate(734,618)"/>
<path d="M0 0 C4.47238653 1.41807378 8.71146306 3.11304374 13 5 C12.67 5.66 12.34 6.32 12 7 C8.80862651 6.36747553 6.48762632 5.24396936 3.75 3.5 C3.04359375 3.0565625 2.3371875 2.613125 1.609375 2.15625 C1.07828125 1.7746875 0.5471875 1.393125 0 1 C0 0.67 0 0.34 0 0 Z " fill="#D2DBD0" transform="translate(460,494)"/>
<path d="M0 0 C0.94875 0.04125 1.8975 0.0825 2.875 0.125 C2.875 1.445 2.875 2.765 2.875 4.125 C0.235 3.465 -2.405 2.805 -5.125 2.125 C-3.125 0.125 -3.125 0.125 0 0 Z " fill="#90969A" transform="translate(438.125,656.875)"/>
<path d="M0 0 C-0.33 1.98 -0.66 3.96 -1 6 C-1.99 6 -2.98 6 -4 6 C-4 4.35 -4 2.7 -4 1 C-2 0 -2 0 0 0 Z " fill="#264D26" transform="translate(289,632)"/>
<path d="M0 0 C1.98 0.495 1.98 0.495 4 1 C3.1654738 3.50357861 2.20628008 5.66785852 1 8 C-1 5 -1 5 -0.625 2.3125 C-0.41875 1.549375 -0.2125 0.78625 0 0 Z " fill="#2E5D34" transform="translate(559,629)"/>
<path d="M0 0 C0 0.66 0 1.32 0 2 C0.66 2.33 1.32 2.66 2 3 C-1.63 3.66 -5.26 4.32 -9 5 C-4 0 -4 0 0 0 Z " fill="#446C50" transform="translate(368,482)"/>
<path d="M0 0 C0.66 0.66 1.32 1.32 2 2 C0.875 3.5 0.875 3.5 -1 5 C-4.1875 5.1875 -4.1875 5.1875 -7 5 C-4.87219421 2.65941363 -2.88437779 1.29299694 0 0 Z " fill="#727C82" transform="translate(440,672)"/>
<path d="M0 0 C0.99 0.99 1.98 1.98 3 3 C2.67 3.33 2.34 3.66 2 4 C1.76518307 6.18292774 1.58636677 8.37203174 1.4375 10.5625 C1.35371094 11.76003906 1.26992188 12.95757813 1.18359375 14.19140625 C1.12300781 15.11824219 1.06242188 16.04507813 1 17 C0.67 17 0.34 17 0 17 C0 11.39 0 5.78 0 0 Z " fill="#DCDEDD" transform="translate(684,629)"/>
<path d="M0 0 C0.66 0.33 1.32 0.66 2 1 C1.34 2.65 0.68 4.3 0 6 C-1.32 6 -2.64 6 -4 6 C-2.68 4.02 -1.36 2.04 0 0 Z " fill="#214B2A" transform="translate(424,635)"/>
<path d="M0 0 C0.99 0.66 1.98 1.32 3 2 C3 2.99 3 3.98 3 5 C0.69 5 -1.62 5 -4 5 C-2.68 3.35 -1.36 1.7 0 0 Z " fill="#1E4625" transform="translate(273,640)"/>
<path d="M0 0 C0.33 0 0.66 0 1 0 C1 1.98 1 3.96 1 6 C-2.3 5.34 -5.6 4.68 -9 4 C-9 3.67 -9 3.34 -9 3 C-7.88625 2.87625 -6.7725 2.7525 -5.625 2.625 C-1.96896323 2.3534187 -1.96896323 2.3534187 0 0 Z " fill="#496F50" transform="translate(417,636)"/>
<path d="M0 0 C0.66 0 1.32 0 2 0 C2.33 2.64 2.66 5.28 3 8 C2.01 8.33 1.02 8.66 0 9 C0 6.03 0 3.06 0 0 Z " fill="#466747" transform="translate(709,626)"/>
<path d="M0 0 C0 0.66 0 1.32 0 2 C-2.31 2.66 -4.62 3.32 -7 4 C-7.33 3.01 -7.66 2.02 -8 1 C-5.29120665 -0.35439668 -2.99066732 -0.06501451 0 0 Z " fill="#305B3D" transform="translate(659,556)"/>
<path d="M0 0 C1.99097846 2.98646769 2.94124926 5.59687262 4 9 C3.01 9.495 3.01 9.495 2 10 C2 9.01 2 8.02 2 7 C1.34 7 0.68 7 0 7 C-1.125 2.25 -1.125 2.25 0 0 Z " fill="#346437" transform="translate(303,623)"/>
<path d="M0 0 C0.33 0 0.66 0 1 0 C1 4.95 1 9.9 1 15 C0.01 14.01 -0.98 13.02 -2 12 C-1.67 11.67 -1.34 11.34 -1 11 C-0.76636119 9.15108054 -0.58696365 7.29511969 -0.4375 5.4375 C-0.35371094 4.42558594 -0.26992188 3.41367187 -0.18359375 2.37109375 C-0.12300781 1.58863281 -0.06242188 0.80617188 0 0 Z " fill="#DADEDA" transform="translate(696,617)"/>
<path d="M0 0 C-0.99 0.33 -1.98 0.66 -3 1 C-3.99 2.485 -3.99 2.485 -5 4 C-6.32 3.34 -7.64 2.68 -9 2 C-5.945634 -1.054366 -3.9532319 -1.22686507 0 0 Z " fill="#3F6046" transform="translate(605,363)"/>
<path d="M0 0 C0.66 0.66 1.32 1.32 2 2 C-1.83325617 4.70582788 -4.32538149 5.32613618 -9 5 C-8.443125 4.731875 -7.88625 4.46375 -7.3125 4.1875 C-4.80287477 2.89877353 -2.40665764 1.47073522 0 0 Z " fill="#335D3E" transform="translate(452,641)"/>
<path d="M0 0 C1.98 0 3.96 0 6 0 C5.67 1.65 5.34 3.3 5 5 C3.35 3.35 1.7 1.7 0 0 Z " fill="#2A5A32" transform="translate(712,639)"/>
<path d="M0 0 C0.66 0 1.32 0 2 0 C2 2.31 2 4.62 2 7 C1.01 7.33 0.02 7.66 -1 8 C-0.67 5.36 -0.34 2.72 0 0 Z " fill="#14401B" transform="translate(384,628)"/>
<path d="M0 0 C-1.0975223 2.99324263 -1.67682892 3.84610901 -4.625 5.25 C-5.40875 5.4975 -6.1925 5.745 -7 6 C-7 5.34 -7 4.68 -7 4 C-2.52941176 0 -2.52941176 0 0 0 Z " fill="#305E3E" transform="translate(389,638)"/>
<path d="M0 0 C1.9375 0.75 1.9375 0.75 4 2 C4.75 4.125 4.75 4.125 5 6 C4.01 6 3.02 6 2 6 C0 3 0 3 0 0 Z " fill="#2D5231" transform="translate(264,636)"/>
<path d="M0 0 C2.31 0 4.62 0 7 0 C7 0.33 7 0.66 7 1 C5.35 1 3.7 1 2 1 C1.67 1.99 1.34 2.98 1 4 C0.01 4.33 -0.98 4.66 -2 5 C-1.34 3.35 -0.68 1.7 0 0 Z " fill="#446B4A" transform="translate(753,615)"/>
</svg>
